HIERARCHY
ROOT Hips
{
	OFFSET 0.000000 89.005402 0.000000
	CHANNELS 6 Xposition Yposition Zposition Xrotation Yrotation Zrotation
	JOINT Spine
	{
		OFFSET 0.116900 10.681000 0.373400
		CHANNELS 3 Xrotation Yrotation Zrotation
		JOINT Spine1
		{
			OFFSET 0.000000 13.840401 0.053500
			CHANNELS 3 Xrotation Yrotation Zrotation
			JOINT Spine2
			{
				OFFSET 0.000000 14.712700 -0.366200
				CHANNELS 3 Xrotation Yrotation Zrotation
				JOINT Neck
				{
					OFFSET 0.000000 35.415497 -3.314200
					CHANNELS 3 Xrotation Yrotation Zrotation
					JOINT Head
					{
						OFFSET 0.000000 16.899200 1.218300
						CHANNELS 3 Xrotation Yrotation Zrotation
						JOINT HeadTop_End
						{
							OFFSET 0.000000 22.206207 2.192500
							CHANNELS 3 Xrotation Yrotation Zrotation
							End Site
							{
								OFFSET 0.000000 22.314178 0.000000
							}
						}
					}
				}
				JOINT LeftShoulder
				{
					OFFSET 12.896400 26.716293 -4.548400
					CHANNELS 3 Xrotation Yrotation Zrotation
					JOINT LeftArm
					{
						OFFSET 19.027000 -4.857010 -1.718400
						CHANNELS 3 Xrotation Yrotation Zrotation
						JOINT LeftForeArm
						{
							OFFSET 24.179897 0.000000 0.000000
							CHANNELS 3 Xrotation Yrotation Zrotation
							JOINT LeftHand
							{
								OFFSET 27.156403 0.000000 0.000000
								CHANNELS 3 Xrotation Yrotation Zrotation
								JOINT LeftHandIndex1
								{
									OFFSET 16.441200 0.000000 0.000000
									CHANNELS 3 Xrotation Yrotation Zrotation
									JOINT LeftHandIndex2
									{
										OFFSET 4.821899 0.000000 0.000000
										CHANNELS 3 Xrotation Yrotation Zrotation
										JOINT LeftHandIndex3
										{
											OFFSET 6.386497 0.000000 0.000000
											CHANNELS 3 Xrotation Yrotation Zrotation
											JOINT LeftHandIndex4
											{
												OFFSET 5.188988 0.000000 0.000000
												CHANNELS 3 Xrotation Yrotation Zrotation
												End Site
												{
													OFFSET -0.178703 5.185913 0.000177
												}
											}
										}
									}
								}
								JOINT LeftHandThumb1
								{
									OFFSET 6.534897 -5.032593 5.900300
									CHANNELS 3 Xrotation Yrotation Zrotation
									JOINT LeftHandThumb2
									{
										OFFSET 3.818176 -2.204422 2.204423
										CHANNELS 3 Xrotation Yrotation Zrotation
										JOINT LeftHandThumb3
										{
											OFFSET 3.252098 -1.877594 1.877601
											CHANNELS 3 Xrotation Yrotation Zrotation
											JOINT LeftHandThumb4
											{
												OFFSET 5.251778 -3.032120 3.032117
												CHANNELS 3 Xrotation Yrotation Zrotation
												End Site
												{
													OFFSET 0.000023 6.780014 0.000000
												}
											}
										}
									}
								}
							}
						}
					}
				}
				JOINT RightShoulder
				{
					OFFSET -12.896300 26.716293 -4.548400
					CHANNELS 3 Xrotation Yrotation Zrotation
					JOINT RightArm
					{
						OFFSET -19.027000 -4.857010 -1.718400
						CHANNELS 3 Xrotation Yrotation Zrotation
						JOINT RightForeArm
						{
							OFFSET -24.179897 0.000000 0.000000
							CHANNELS 3 Xrotation Yrotation Zrotation
							JOINT RightHand
							{
								OFFSET -27.156403 0.000000 0.000000
								CHANNELS 3 Xrotation Yrotation Zrotation
								JOINT RightHandThumb1
								{
									OFFSET -6.591202 -4.852203 5.988100
									CHANNELS 3 Xrotation Yrotation Zrotation
									JOINT RightHandThumb2
									{
										OFFSET -3.818176 -2.204422 2.204423
										CHANNELS 3 Xrotation Yrotation Zrotation
										JOINT RightHandThumb3
										{
											OFFSET -3.252098 -1.877594 1.877601
											CHANNELS 3 Xrotation Yrotation Zrotation
											JOINT RightHandThumb4
											{
												OFFSET -5.251778 -3.032120 3.032117
												CHANNELS 3 Xrotation Yrotation Zrotation
												End Site
												{
													OFFSET -0.000023 6.780014 0.000000
												}
											}
										}
									}
								}
								JOINT RightHandIndex1
								{
									OFFSET -16.029404 0.000000 0.000000
									CHANNELS 3 Xrotation Yrotation Zrotation
									JOINT RightHandIndex2
									{
										OFFSET -5.213303 0.000000 0.000000
										CHANNELS 3 Xrotation Yrotation Zrotation
										JOINT RightHandIndex3
										{
											OFFSET -6.386528 0.000000 0.000000
											CHANNELS 3 Xrotation Yrotation Zrotation
											JOINT RightHandIndex4
											{
												OFFSET -5.189026 0.000000 0.000000
												CHANNELS 3 Xrotation Yrotation Zrotation
												End Site
												{
													OFFSET 0.236702 5.183624 0.001972
												}
											}
										}
									}
								}
							}
						}
					}
				}
			}
		}
	}
	JOINT LeftUpLeg
	{
		OFFSET 14.073000 -7.904099 -1.463000
		CHANNELS 3 Xrotation Yrotation Zrotation
		JOINT LeftLeg
		{
			OFFSET -0.109806 -34.073280 4.093200
			CHANNELS 3 Xrotation Yrotation Zrotation
			JOINT LeftFoot
			{
				OFFSET 0.109806 -29.899420 -6.319000
				CHANNELS 3 Xrotation Yrotation Zrotation
				JOINT LeftToeBase
				{
					OFFSET 1.551100 -14.988700 20.535801
					CHANNELS 3 Xrotation Yrotation Zrotation
					JOINT LeftToe_End
					{
						OFFSET 0.221200 0.570800 13.248301
						CHANNELS 3 Xrotation Yrotation Zrotation
						End Site
						{
							OFFSET 0.000000 13.262435 0.000000
						}
					}
				}
			}
		}
	}
	JOINT RightUpLeg
	{
		OFFSET -13.839300 -7.904099 -1.463000
		CHANNELS 3 Xrotation Yrotation Zrotation
		JOINT RightLeg
		{
			OFFSET 0.109694 -34.073219 4.093300
			CHANNELS 3 Xrotation Yrotation Zrotation
			JOINT RightFoot
			{
				OFFSET -0.109694 -29.899384 -6.319200
				CHANNELS 3 Xrotation Yrotation Zrotation
				JOINT RightToeBase
				{
					OFFSET -1.551100 -14.988700 20.535801
					CHANNELS 3 Xrotation Yrotation Zrotation
					JOINT RightToe_End
					{
						OFFSET -0.221200 0.570900 13.248299
						CHANNELS 3 Xrotation Yrotation Zrotation
						End Site
						{
							OFFSET 0.000000 13.262440 0.000000
						}
					}
				}
			}
		}
	}
}
MOTION
Frames: 8
Frame Time: 0.033333
21.872477 78.723114 310.084625 -5.817515 -62.558188 -3.433330 8.053618 19.474637 13.330983 0.424949 4.644139 1.816132 0.531579 4.605101 1.795605 -4.466285 0.626551 0.954719 -34.969018 19.271770 1.964236 -0.000002 -0.000000 0.000000 0.691557 -6.343410 -5.607538 12.636634 8.222247 -79.602071 -530.961967 -145.633075 -534.743706 15.501691 41.559983 -50.332473 0.797902 5.303572 -34.656995 1.196021 3.548695 -37.241053 1.196016 3.548704 -37.241091 -0.000001 -0.000000 -0.000000 14.039056 7.865250 7.378221 33.415235 -5.478145 -0.693047 2.504400 -7.301106 20.758589 -0.000000 -0.000000 0.000001 4.560342 6.740089 8.683090 23.371736 21.176307 25.073040 -362.557643 36.240209 353.129413 5.367197 -16.702869 61.048060 7.041092 -11.446605 -5.012708 30.587418 -1.033346 -5.127771 -13.033780 -9.587237 -7.044362 -0.000002 0.000000 -0.000001 0.769205 -4.799205 38.652443 1.195204 -3.117025 41.949929 1.195210 -3.117029 41.949970 -0.000001 -0.000000 0.000001 -33.096993 -11.230410 -12.802553 65.720886 10.073038 7.746322 -17.147496 -0.249022 4.907363 -23.227762 10.607701 -15.330467 0.000000 -0.000000 -0.000000 -8.932394 1.416865 -17.184145 50.219410 -15.854831 -4.961777 -28.456253 -4.264410 10.707553 -9.071868 -4.286907 10.337746 -0.000000 0.000000 0.000000 
22.773399 79.048668 310.604584 -3.267443 -58.785232 -0.633716 11.456577 19.028357 9.972306 1.192309 4.649610 1.236339 1.290260 4.625513 1.180144 -3.833686 0.532398 0.291503 -39.441375 17.278640 0.448822 0.000003 -0.000001 0.000000 0.638314 -7.289840 -8.194719 17.920238 0.655137 -75.761981 -546.950402 -132.377672 -545.170017 10.964370 45.719514 -35.770568 1.253510 5.914826 -39.203011 1.981753 4.392375 -48.551488 1.981763 4.392337 -48.551498 0.000001 -0.000001 0.000001 12.840174 7.635976 8.007559 32.312358 -4.326153 -0.337444 2.435347 -7.276884 20.978426 0.000000 -0.000001 -0.000000 4.565037 6.387610 7.337545 18.906213 7.795031 36.611013 -371.409896 49.056300 359.656124 6.190358 -18.830058 58.750214 5.811464 -11.140427 -5.620552 29.456967 -2.165631 -5.583783 -13.166682 -9.554132 -7.264636 0.000003 -0.000001 -0.000000 1.185176 -5.320871 43.205598 1.873815 -3.735386 53.267976 1.873811 -3.735385 53.267935 -0.000000 -0.000000 0.000000 -30.055237 -10.096760 -12.888485 59.880508 7.932199 8.528224 -21.312630 -1.153353 6.280282 -14.619714 6.168815 -14.253815 0.000001 0.000003 0.000000 -15.062229 2.319126 -17.101733 60.429252 -21.325282 -0.010524 -24.876307 -3.312702 7.584710 -8.541466 -8.014954 22.893165 0.000000 -0.000000 -0.000000 
23.571632 79.248848 310.891113 -1.631841 -55.775728 2.108404 15.430406 17.755613 6.106666 2.007847 4.469774 0.768205 2.094771 4.447288 0.674222 -2.681613 0.475750 -0.334518 -39.655573 15.612112 -1.355759 -0.000001 -0.000002 -0.000000 0.609532 -7.964381 -9.144050 23.857171 -4.890606 -71.831153 -548.329663 -117.440936 -547.389119 8.394530 50.156903 -26.855990 1.723384 6.428160 -44.292083 2.988891 5.105346 -60.671129 2.988876 5.105320 -60.671129 -0.000001 0.000002 -0.000000 15.669142 9.110492 6.830473 27.550753 0.593703 1.099409 3.037885 -7.498137 19.050559 0.000000 -0.000000 0.000000 4.618121 4.709081 4.179460 15.346989 -1.704977 49.127771 -376.945627 62.474962 367.174932 6.642232 -21.716798 53.395694 8.661570 -12.760802 -4.591555 24.552169 -6.994197 -7.465974 -11.996277 -9.827369 -5.329282 -0.000000 0.000000 0.000000 1.603164 -5.737452 48.297828 2.719199 -4.235601 65.385886 2.719204 -4.235606 65.385893 0.000000 0.000001 -0.000003 -26.741789 -8.444782 -12.646207 53.361690 3.857844 8.213625 -23.848468 -1.720139 6.825642 -7.574331 4.260818 -7.448763 -0.000000 0.000001 0.000000 -22.520158 0.708329 -17.574965 68.861783 -15.428711 4.521240 -23.242422 -1.762553 3.729323 -2.564408 -7.114328 14.571459 0.000000 0.000000 -0.000001 
24.073338 79.523682 311.477753 0.543159 -53.134237 5.038331 16.856531 15.719858 3.824684 2.291631 4.035359 0.658618 2.361492 4.008627 0.558576 -0.096301 0.361798 -0.708270 -29.978677 13.750026 -4.557470 -0.000000 -0.000003 -0.000000 0.670780 -7.150706 -7.137382 29.831527 -12.339153 -68.646570 -511.078795 -106.244720 -511.845852 13.842862 56.840681 -32.551391 1.882194 6.588660 -47.097160 3.130167 5.181877 -62.247079 3.130179 5.181875 -62.247107 -0.000000 -0.000001 0.000002 15.976968 12.731263 6.838484 24.500310 3.701504 1.915196 3.152325 -7.542756 18.681915 -0.000000 0.000002 -0.000001 4.577897 3.081700 1.073624 12.994462 -12.462046 60.205146 -403.198115 75.853178 398.992576 7.681007 -26.823768 47.206494 8.824235 -16.365374 -4.984220 21.391020 -10.041593 -8.576014 -11.771239 -9.875190 -4.958238 -0.000001 0.000000 -0.000000 1.730548 -5.845676 51.101863 2.836240 -4.287145 66.960880 2.836242 -4.287145 66.960900 0.000001 -0.000001 0.000001 -24.951455 -6.039305 -12.949277 48.337286 0.117038 8.229057 -24.256891 -2.225636 7.961403 -3.940828 3.042943 -2.560728 -0.000001 -0.000000 -0.000000 -30.475949 -3.558457 -17.116685 70.883546 -6.774458 6.619490 -18.549257 -0.415353 0.625981 -13.567859 -7.083630 8.161939 -0.000000 0.000000 -0.000000 
24.323734 80.148003 312.475922 0.562326 -50.892160 5.771285 16.871392 14.247478 3.782439 2.441814 3.648794 0.840544 2.500921 3.622969 0.743727 3.582017 0.175706 -1.196743 -16.189309 11.808592 -8.235584 0.000000 -0.000001 -0.000000 0.716052 -6.413281 -4.760434 35.437108 -16.482225 -63.790279 -454.482235 -106.610790 -454.336588 21.289672 63.252415 -39.790558 1.993628 6.742545 -51.999022 2.428069 4.748160 -54.148234 2.428075 4.748146 -54.148247 0.000000 0.000000 0.000000 18.600641 13.747396 5.015744 21.121583 7.111230 2.700214 4.291293 -8.033703 14.962484 -0.000002 0.000001 0.000001 4.515858 2.324273 -0.594031 15.039826 -22.229296 68.465823 -299.286049 106.408466 299.004645 6.242609 -32.052988 34.764444 11.521139 -17.588710 -3.248967 17.873792 -13.387185 -9.693591 -9.481456 -10.277076 -1.199405 -0.000000 -0.000000 -0.000000 1.782658 -5.909308 55.999102 2.251106 -3.988658 58.865207 2.251107 -3.988671 58.865220 -0.000000 -0.000001 -0.000000 -26.130671 -3.024223 -13.636089 49.030571 -1.162768 7.763242 -19.862344 -2.083741 8.507862 -9.191558 -0.127623 -4.036229 -0.000000 0.000000 -0.000000 -33.761950 -7.266374 -16.241153 68.075539 -4.126825 7.872642 -15.033999 -0.211902 0.364120 -18.575980 0.015625 0.148928 0.000000 -0.000001 0.000000 
24.248892 80.732452 313.752411 -3.169804 -49.201845 2.878357 17.992612 14.628648 4.720158 2.890308 3.669191 1.091685 2.949193 3.644720 0.982545 6.452466 -0.137325 -1.321698 -8.127002 9.396835 -9.595311 -0.000000 -0.000000 0.000000 0.779588 -6.868383 -3.297034 40.425492 -10.861919 -57.395036 -399.186117 -110.918932 -397.035372 1.662662 66.623509 -8.130025 2.366056 7.054334 -56.731661 1.973367 4.384953 -48.441887 1.973371 4.384944 -48.441863 0.000000 0.000000 0.000002 19.256776 5.834659 2.720632 15.950553 12.292489 3.612441 7.487435 -9.925435 3.856083 -0.000002 -0.000001 0.000000 4.589335 2.380127 0.423503 18.141623 -27.674658 73.618347 -346.928093 118.362711 347.016421 -1.274267 -32.431828 9.092583 12.630984 -9.941729 -0.127045 12.460293 -18.487054 -11.123923 -2.522501 -10.583679 10.130400 0.000003 0.000000 -0.000001 2.088903 -6.141938 60.728428 1.866666 -3.730057 53.158321 1.866679 -3.730066 53.158307 0.000000 -0.000001 -0.000001 -32.041087 0.075596 -10.702694 56.436856 -1.680741 4.395677 -3.398426 0.182742 0.736811 -28.398064 -6.372738 -1.089945 -0.000001 -0.000001 -0.000001 -30.241199 -10.245179 -14.373322 63.239991 -7.287762 7.041537 -15.635252 -0.113669 -0.700090 -16.607181 3.402426 0.364040 -0.000000 0.000000 -0.000000 
23.876841 80.259895 315.422974 -6.841356 -47.278460 -0.620689 18.248025 15.977161 5.321379 3.237839 3.962100 1.252881 3.305362 3.930007 1.132016 7.679090 -0.472016 -0.642366 -6.063277 6.539347 -8.058141 -0.000000 0.000001 -0.000001 0.793437 -5.893561 -0.109247 46.469564 -3.558673 -54.167611 -382.284213 -125.986172 -378.145528 -21.246125 46.443002 38.899358 5.580157 8.724826 -59.299142 1.780820 4.206871 -45.871749 1.780816 4.206869 -45.871731 0.000001 -0.000003 -0.000001 7.396154 11.749035 7.354767 30.021017 -1.947716 0.375810 5.069552 -8.420617 12.361009 0.000000 -0.000001 -0.000000 4.752058 3.470744 4.119247 18.266499 -29.783258 74.302192 -386.134964 136.247193 380.984537 -9.977815 -28.145809 -24.327459 0.256714 -15.224422 -5.387988 27.101441 -4.501128 -6.509043 -7.862784 -10.469921 1.443777 0.000001 0.000001 0.000001 5.246495 -7.810986 63.311592 1.702259 -3.601274 50.587216 1.702261 -3.601290 50.587171 -0.000001 -0.000000 0.000001 -36.201358 4.521016 -7.551986 65.673696 2.056659 2.468055 9.011735 -2.050928 0.589856 -33.720046 -13.356572 1.902336 -0.000000 -0.000000 -0.000000 -23.470673 -13.299548 -10.914904 59.697793 -10.220668 3.041577 -23.677838 -0.090517 -1.199744 -17.089758 -1.235834 3.686454 0.000000 0.000000 -0.000000 
23.595661 79.620720 317.268372 -9.325122 -44.402715 -2.884429 17.668429 16.907119 5.773625 3.212192 4.159327 1.313069 3.299696 4.107026 1.189482 7.427181 -0.691828 0.065455 -6.203823 4.147255 -6.596405 -0.000000 -0.000001 -0.000000 0.251843 -3.094737 1.706239 49.381680 -0.223859 -51.274565 -395.964043 -138.245693 -385.418641 -18.967336 23.867188 62.273703 5.988684 8.722753 -63.190021 1.647226 4.073374 -44.021365 1.647210 4.073366 -44.021385 0.000000 0.000002 -0.000003 2.339980 17.015547 8.289582 44.834441 -8.370882 -1.269690 -0.526203 -6.503091 30.204172 -0.000001 -0.000001 -0.000000 4.895077 3.605387 6.611858 13.975551 -28.105397 72.420509 -412.790023 155.818034 397.136432 -14.133537 -21.537458 -51.716690 -5.101246 -20.301926 -6.906986 39.231685 7.865414 -1.477198 -18.582988 -7.724065 -16.388849 0.000006 0.000001 -0.000002 5.595453 -7.751674 67.192963 1.587523 -3.504033 48.735838 1.587546 -3.504034 48.735828 0.000002 -0.000002 -0.000002 -41.807390 3.325410 -3.562739 69.937736 2.899912 1.855868 29.233971 -2.937884 -7.820470 -50.254674 -10.736537 5.721778 0.000000 -0.000003 -0.000000 -14.356967 -11.707790 -9.083686 54.546055 -11.263433 2.843384 -30.428035 -1.001315 1.757718 -6.660141 -6.105558 3.274460 0.000000 0.000001 0.000000 
